<svg xmlns="http://www.w3.org/2000/svg" version="1.1" xmlns:xlink="http://www.w3.org/1999/xlink" xmlns:svgjs="http://svgjs.com/svgjs" width="1920" height="1080" preserveAspectRatio="none" viewBox="0 0 1920 1080"><g mask="url(&quot;#SvgjsMask1009&quot;)" fill="none"><path d="M270 234.64C151.84 234.64 33.24 204.68 22.5 270C8.13 357.36 114.09 413.04 219.77 540C237.84 561.71 245.4 567.34 270 567.34C291.69 567.34 309.39 563.39 312.35 540C328.19 414.72 325.37 398.18 307.59 270C304.19 245.5 294.39 234.64 270 234.64" stroke="rgba(51, 121, 194, 0.58)" stroke-width="2"></path><path d="M1275.52 0C1317.72 7.59 1310.41 48.54 1350 48.54C1407.65 48.54 1407.46 11.24 1470 0C1542.46 -13.03 1545 0 1620 0C1755 0 1755 0 1890 0C2025 0 2092.5 -67.5 2160 0C2227.5 67.5 2160 135 2160 270C2160 364.25 2215.01 410.45 2160 458.49C2080.01 528.36 2023.32 475.89 1890 505.82C1841.77 516.65 1796.9 512.23 1796.9 540C1796.9 577.53 1844.98 586.81 1890 636.43C1967.47 721.81 1957.41 733.39 2041.88 810C2092.41 855.83 2135.79 825.99 2160 881.32C2194.85 960.99 2211.62 1032.28 2160 1080C2104.17 1131.62 2034.1 1111.79 1945.1 1080C1899.1 1063.57 1931.41 983.57 1890 983.57C1813.86 983.57 1803.7 1046.53 1710 1080C1668.7 1094.75 1665 1080 1620 1080C1485 1080 1485 1080 1350 1080C1215 1080 1215 1080 1080 1080C945 1080 945 1080 810 1080C675 1080 675 1080 540 1080C405 1080 405 1080 270 1080C135 1080 67.5 1147.5 0 1080C-67.5 1012.5 0 945 0 810C0 675 0 675 0 540C0 405 0 405 0 270C0 135 -67.5 67.5 0 0C67.5 -67.5 135 0 270 0C405 0 405 0 540 0C675 0 675 0 810 0C945 0 945 0 1080 0C1177.76 0 1182.72 -16.68 1275.52 0" stroke="rgba(51, 121, 194, 0.58)" stroke-width="2"></path><path d="M810 476.47C799.34 476.47 792.4 506.8 787.02 540C765.4 673.56 748.58 677.95 756 810C760.07 882.5 775.24 949.09 810 949.09C849.07 949.09 900.06 886.61 903.67 810C909.7 682.06 867.15 674.81 829.29 540C820.31 508.04 820.48 476.47 810 476.47" stroke="rgba(51, 121, 194, 0.58)" stroke-width="2"></path><path d="M1350 707.59C1301.78 707.59 1240 760.14 1240 810C1240 857.75 1301.24 902.81 1350 902.81C1388.17 902.81 1413.87 857.13 1413.87 810C1413.87 759.52 1388.72 707.59 1350 707.59" stroke="rgba(51, 121, 194, 0.58)" stroke-width="2"></path><path d="M270 154.29C147.83 98.34 101.94 148.25 0 90C-33.06 71.11 -33.75 11.25 0 0C101.25 -33.75 135 0 270 0C390 0 396.17 -13.94 510 0C531.17 2.59 522.63 33.06 540 33.06C564.63 33.06 563.4 3.75 594 0C698.4 -12.78 702 0 810 0C945 0 945 0 1080 0C1119.57 0 1124.33 -16.03 1159.14 0C1259.33 46.16 1245.79 109.12 1350 124.38C1476.22 142.87 1500.1 116.16 1620 67.5C1653.34 53.97 1623.1 8.35 1656.49 0C1758.1 -25.4 1773.24 0 1890 0C2025 0 2092.5 -67.5 2160 0C2227.5 67.5 2160 135 2160 270C2160 300.57 2183.89 317.83 2160 331.13C2048.89 393.02 2027.67 386.8 1890 420.38C1757.67 452.66 1746.09 421.57 1620 462.86C1563.44 481.38 1524.71 510.21 1524.71 540C1524.71 564.36 1582 540.03 1620 571.15C1746.82 675.03 1854.34 697.52 1854.34 810C1854.34 911.03 1724.05 998.18 1620 998.18C1540.11 998.18 1550.21 906.1 1486.45 810C1415.21 702.61 1432.72 591.21 1350 591.21C1247 591.21 1199.45 682.46 1115 810C1064.45 886.35 1098.36 999 1080 999C1061.57 999 1067.7 902.61 1041.43 810C1002.61 673.11 957.15 676.91 949.82 540C942.69 406.91 1051.35 370.03 1012.5 270C981.44 190.03 897.99 180 810 180C767.29 180 773.59 221.38 751.09 270C690.29 401.38 662.64 400.53 643.4 540C625.39 670.53 704.77 686.98 676.59 810C653.07 912.69 624.82 921.07 540 991.41C462.03 1056.07 448.26 1048.09 351 1080C313.26 1092.38 310.5 1080 270 1080C135 1080 79.18 1135.82 0 1080C-55.82 1040.65 -24.06 975.21 0 889.67C13.91 840.21 75.94 856.53 75.94 810C75.94 729.91 25.16 725.89 0 636.43C-12.81 590.89 0 588.21 0 540C0 500.3 -13.8 460.59 0 460.59C17.59 460.59 22.25 511.15 62.79 540C157.25 607.24 168.5 652.78 270 652.78C359.46 652.78 418.22 622.43 444.71 540C479.74 431.04 447.15 389.46 393.04 270C359.79 196.6 344.35 188.34 270 154.29" stroke="rgba(51, 121, 194, 0.58)" stroke-width="2"></path><path d="M1120.5 1080C1120.5 1061.65 1239.23 1008.28 1350 1008.28C1416.01 1008.28 1474.05 1060.78 1474.05 1080C1474.05 1096.64 1412.03 1080 1350 1080C1235.25 1080 1120.5 1097.51 1120.5 1080" stroke="rgba(51, 121, 194, 0.58)" stroke-width="2"></path><path d="M2082.86 1080C2082.86 1059.44 2137.03 1008.68 2160 1008.68C2175.6 1008.68 2178.53 1062.87 2160 1080C2139.96 1098.53 2082.86 1095.1 2082.86 1080" stroke="rgba(51, 121, 194, 0.58)" stroke-width="2"></path><path d="M270 73.93C186.83 73.93 97.5 19.26 97.5 0C97.5 -17.7 183.75 0 270 0C327.5 0 385 -16.89 385 0C385 20.08 330.58 73.93 270 73.93" stroke="rgba(51, 121, 194, 0.58)" stroke-width="2"></path><path d="M478.48 270C478.48 216.56 504.95 170.82 540 170.82C579.89 170.82 628.36 213.71 628.36 270C628.36 360.5 578.34 464.4 540 464.4C503.4 464.4 478.48 363.35 478.48 270" stroke="rgba(51, 121, 194, 0.58)" stroke-width="2"></path><path d="M1208.86 270C1208.86 220.35 1277.61 200.22 1350 200.22C1442.27 200.22 1538.18 217.34 1538.18 270C1538.18 336.15 1438.07 437.84 1350 437.84C1273.41 437.84 1208.86 339.16 1208.86 270" stroke="rgba(51, 121, 194, 0.58)" stroke-width="2"></path><path d="M1713.1 270C1697.46 167.42 1763.42 115.24 1838.92 0C1851.87 -19.76 1864.46 0 1890 0C2025 0 2070 -45 2160 0C2205 22.5 2183.97 76.01 2160 135C2129.12 211.01 2118 219.87 2050.31 270C1983 319.84 1970.69 334.94 1890 334.94C1802.09 334.94 1723 334.89 1713.1 270" stroke="rgba(51, 121, 194, 0.58)" stroke-width="2"></path><path d="M1070.36 540C1070.36 528.15 1071.72 516.52 1080 516.52C1093.41 516.52 1113.75 527.7 1113.75 540C1113.75 552.94 1093.04 567 1080 567C1071.35 567 1070.36 553.39 1070.36 540" stroke="rgba(51, 121, 194, 0.58)" stroke-width="2"></path><path d="M181.41 810C181.41 765.92 220.21 765.22 270 738.23C399.5 668.02 442.82 594.28 540 615.6C606.41 630.17 597.18 717.99 597.18 810C597.18 853.16 581.37 866.56 540 885.94C417.78 943.18 379.98 986.53 270 963.24C200.68 948.56 181.41 878.43 181.41 810" stroke="rgba(51, 121, 194, 0.58)" stroke-width="2"></path><path d="M1559.03 810C1559.03 757.12 1582.22 700.96 1620 700.96C1666.2 700.96 1726.98 758.65 1726.98 810C1726.98 856.12 1667.5 895.91 1620 895.91C1583.53 895.91 1559.03 854.59 1559.03 810" stroke="rgba(51, 121, 194, 0.58)" stroke-width="2"></path><path d="M0 1000.33C48.07 1000.33 142.94 1058.74 142.94 1080C142.94 1098.57 45.89 1105.58 0 1080C-25.58 1065.74 -23.4 1000.33 0 1000.33" stroke="rgba(51, 121, 194, 0.58)" stroke-width="2"></path></g><defs><mask id="SvgjsMask1009"><rect width="1920" height="1080" fill="#ffffff"></rect></mask></defs></svg>